<svg width="20" height="20" viewBox="0 0 20 20" fill="none" stroke-width="0" xmlns="http://www.w3.org/2000/svg">
<path d="M8.85433 19.1663H4.271C3.35961 19.1651 2.4859 18.8026 1.84157 18.1583C1.19724 17.5139 0.834718 16.6402 0.833496 15.7288V8.85384C0.833496 8.64292 1.00452 8.4719 1.21544 8.4719H8.85433C8.95561 8.4719 9.0528 8.51214 9.12442 8.58375C9.19603 8.65537 9.23627 8.75256 9.23627 8.85384V18.7844C9.23627 18.8857 9.19603 18.9829 9.12442 19.0545C9.0528 19.1261 8.95561 19.1663 8.85433 19.1663ZM1.59738 9.23579V15.7288C1.59824 16.4376 1.88009 17.1173 2.3814 17.6184C2.88251 18.1197 3.56219 18.4016 4.271 18.4025H8.47238V9.23579H1.59738Z" />
<path d="M8.85433 6.94412H1.21544C1.00452 6.94412 0.833496 6.7731 0.833496 6.56217V4.27051C0.83469 3.35912 1.19719 2.48541 1.84157 1.84108C2.48594 1.19675 3.35961 0.83423 4.271 0.833008H8.85433C8.95561 0.833008 9.0528 0.873249 9.12442 0.944863C9.19603 1.01648 9.23627 1.11367 9.23627 1.21495V6.56217C9.23627 6.66346 9.19603 6.76065 9.12442 6.83226C9.0528 6.90388 8.95561 6.94412 8.85433 6.94412ZM1.59738 6.18023H8.47238V1.5969H4.271C3.56219 1.59775 2.88251 1.87961 2.3814 2.38091C1.88011 2.88202 1.59826 3.56171 1.59738 4.27051V6.18023Z" />
<path d="M18.7849 11.5275H11.146C10.9351 11.5275 10.7641 11.3564 10.7641 11.1455V1.21495C10.7641 1.00403 10.9351 0.833008 11.146 0.833008H15.7293C16.6407 0.834201 17.5144 1.19671 18.1588 1.84108C18.8031 2.48545 19.1656 3.35912 19.1668 4.27051V11.1455C19.1668 11.2468 19.1266 11.344 19.055 11.4156C18.9834 11.4872 18.8862 11.5275 18.7849 11.5275ZM11.5279 10.7636H18.4029V4.27051C18.4021 3.56171 18.1202 2.88202 17.6189 2.38091C17.1178 1.87962 16.4381 1.59777 15.7293 1.5969H11.5279V10.7636Z" />
<path d="M15.7293 19.1663H11.146C10.9351 19.1663 10.7641 18.9953 10.7641 18.7844V13.4372C10.7641 13.2263 10.9351 13.0552 11.146 13.0552H18.7849C18.8862 13.0552 18.9834 13.0955 19.055 13.1671C19.1266 13.2387 19.1668 13.3359 19.1668 13.4372V15.7288C19.1656 16.6402 18.8031 17.5139 18.1588 18.1583C17.5144 18.8026 16.6407 19.1651 15.7293 19.1663ZM11.5279 18.4025H15.7293C16.4381 18.4016 17.1178 18.1197 17.6189 17.6184C18.1202 17.1173 18.4021 16.4376 18.4029 15.7288V13.8191H11.5279V18.4025Z" />
<path d="M4.271 19.1663L4.27067 19.4163H4.271V19.1663ZM0.833496 15.7288H0.583496L0.583496 15.7292L0.833496 15.7288ZM1.59738 9.23579V8.98579H1.34738V9.23579H1.59738ZM1.59738 15.7288H1.34738L1.34739 15.7291L1.59738 15.7288ZM2.3814 17.6184L2.5582 17.4417L2.55814 17.4416L2.3814 17.6184ZM4.271 18.4025L4.27069 18.6525H4.271V18.4025ZM8.47238 18.4025V18.6525H8.72238V18.4025H8.47238ZM8.47238 9.23579H8.72238V8.98579H8.47238V9.23579ZM0.833496 4.27051L0.583496 4.27018V4.27051H0.833496ZM4.271 0.833008V0.583008L4.27066 0.583008L4.271 0.833008ZM1.59738 6.18023H1.34738V6.43023H1.59738V6.18023ZM8.47238 6.18023V6.43023H8.72238V6.18023H8.47238ZM8.47238 1.5969H8.72238V1.3469H8.47238V1.5969ZM4.271 1.5969V1.3469L4.2707 1.3469L4.271 1.5969ZM2.3814 2.38091L2.55814 2.55772L2.55821 2.55765L2.3814 2.38091ZM1.59738 4.27051L1.34738 4.2702V4.27051H1.59738ZM15.7293 0.833008L15.7297 0.583008H15.7293V0.833008ZM19.1668 4.27051H19.4168V4.27017L19.1668 4.27051ZM11.5279 10.7636H11.2779V11.0136H11.5279V10.7636ZM18.4029 10.7636V11.0136H18.6529V10.7636H18.4029ZM18.4029 4.27051H18.6529V4.27021L18.4029 4.27051ZM17.6189 2.38091L17.4421 2.55765L17.4422 2.55772L17.6189 2.38091ZM15.7293 1.5969L15.7296 1.3469H15.7293V1.5969ZM11.5279 1.5969V1.3469H11.2779V1.5969H11.5279ZM15.7293 19.1663V19.4163H15.7297L15.7293 19.1663ZM19.1668 15.7288L19.4168 15.7292V15.7288H19.1668ZM11.5279 18.4025H11.2779V18.6525H11.5279V18.4025ZM15.7293 18.4025V18.6525H15.7296L15.7293 18.4025ZM17.6189 17.6184L17.4422 17.4416L17.4421 17.4417L17.6189 17.6184ZM18.4029 15.7288L18.6529 15.7291V15.7288H18.4029ZM18.4029 13.8191H18.6529V13.5691H18.4029V13.8191ZM11.5279 13.8191V13.5691H11.2779V13.8191H11.5279ZM8.85433 18.9163H4.271V19.4163H8.85433V18.9163ZM4.27132 18.9163C3.42611 18.9152 2.61586 18.5791 2.01835 17.9815L1.66478 18.335C2.35593 19.0262 3.29311 19.4151 4.27067 19.4163L4.27132 18.9163ZM2.01835 17.9815C1.42083 17.3839 1.08463 16.5737 1.0835 15.7285L0.583496 15.7292C0.584807 16.7067 0.973649 17.6439 1.66478 18.335L2.01835 17.9815ZM1.0835 15.7288V8.85384H0.583496V15.7288H1.0835ZM1.0835 8.85384C1.0835 8.78099 1.14259 8.7219 1.21544 8.7219V8.2219C0.866449 8.2219 0.583496 8.50485 0.583496 8.85384H1.0835ZM1.21544 8.7219H8.85433V8.2219H1.21544V8.7219ZM8.85433 8.7219C8.88934 8.7219 8.92293 8.73582 8.94764 8.76053L9.3012 8.40698C9.18268 8.28845 9.02188 8.2219 8.85433 8.2219V8.7219ZM8.94764 8.76053C8.97235 8.78524 8.98627 8.81883 8.98627 8.85384H9.48627C9.48627 8.68628 9.41971 8.5255 9.3012 8.40698L8.94764 8.76053ZM8.98627 8.85384V18.7844H9.48627V8.85384H8.98627ZM8.98627 18.7844C8.98627 18.8194 8.97235 18.853 8.94764 18.8777L9.30119 19.2313C9.41972 19.1127 9.48627 18.952 9.48627 18.7844H8.98627ZM8.94764 18.8777C8.92293 18.9024 8.88934 18.9163 8.85433 18.9163V19.4163C9.02189 19.4163 9.18267 19.3498 9.30119 19.2313L8.94764 18.8777ZM1.34738 9.23579V15.7288H1.84738V9.23579H1.34738ZM1.34739 15.7291C1.34832 16.5041 1.65648 17.2473 2.20465 17.7953L2.55814 17.4416C2.10371 16.9874 1.84816 16.3712 1.84738 15.7285L1.34739 15.7291ZM2.20459 17.7952C2.75255 18.3433 3.49573 18.6515 4.27069 18.6525L4.2713 18.1525C3.62866 18.1517 3.01246 17.8961 2.5582 17.4417L2.20459 17.7952ZM4.271 18.6525H8.47238V18.1525H4.271V18.6525ZM8.72238 18.4025V9.23579H8.22238V18.4025H8.72238ZM8.47238 8.98579H1.59738V9.48579H8.47238V8.98579ZM8.85433 6.69412H1.21544V7.19412H8.85433V6.69412ZM1.21544 6.69412C1.14259 6.69412 1.0835 6.63502 1.0835 6.56217H0.583496C0.583496 6.91117 0.866449 7.19412 1.21544 7.19412V6.69412ZM1.0835 6.56217V4.27051H0.583496V6.56217H1.0835ZM1.0835 4.27084C1.0846 3.42562 1.42079 2.61537 2.01834 2.01786L1.6648 1.6643C0.973601 2.35545 0.584777 3.29262 0.583496 4.27018L1.0835 4.27084ZM2.01834 2.01786C2.6159 1.42034 3.42612 1.08414 4.27133 1.08301L4.27066 0.583008C3.2931 0.584319 2.35598 0.973161 1.6648 1.6643L2.01834 2.01786ZM4.271 1.08301H8.85433V0.583008H4.271V1.08301ZM8.85433 1.08301C8.88934 1.08301 8.92293 1.09693 8.94764 1.12164L9.3012 0.768087C9.18268 0.649565 9.02188 0.583008 8.85433 0.583008V1.08301ZM8.94764 1.12164C8.97235 1.14635 8.98627 1.17994 8.98627 1.21495H9.48627C9.48627 1.04739 9.41971 0.886606 9.3012 0.768087L8.94764 1.12164ZM8.98627 1.21495V6.56217H9.48627V1.21495H8.98627ZM8.98627 6.56217C8.98627 6.59718 8.97235 6.63078 8.94764 6.65549L9.30119 7.00904C9.41971 6.89052 9.48627 6.72973 9.48627 6.56217H8.98627ZM8.94764 6.65549C8.92293 6.6802 8.88934 6.69412 8.85433 6.69412V7.19412C9.02189 7.19412 9.18268 7.12756 9.30119 7.00904L8.94764 6.65549ZM1.59738 6.43023H8.47238V5.93023H1.59738V6.43023ZM8.72238 6.18023V1.5969H8.22238V6.18023H8.72238ZM8.47238 1.3469H4.271V1.8469H8.47238V1.3469ZM4.2707 1.3469C3.49573 1.34783 2.75255 1.65599 2.20459 2.20417L2.55821 2.55765C3.01247 2.10322 3.62866 1.84767 4.2713 1.8469L4.2707 1.3469ZM2.20465 2.2041C1.6565 2.75206 1.34834 3.49524 1.34739 4.2702L1.84738 4.27082C1.84818 3.62817 2.10373 3.01198 2.55814 2.55772L2.20465 2.2041ZM1.34738 4.27051V6.18023H1.84738V4.27051H1.34738ZM18.7849 11.2775H11.146V11.7775H18.7849V11.2775ZM11.146 11.2775C11.0731 11.2775 11.0141 11.2184 11.0141 11.1455H10.5141C10.5141 11.4945 10.797 11.7775 11.146 11.7775V11.2775ZM11.0141 11.1455V1.21495H10.5141V11.1455H11.0141ZM11.0141 1.21495C11.0141 1.1421 11.0731 1.08301 11.146 1.08301V0.583008C10.797 0.583008 10.5141 0.86596 10.5141 1.21495H11.0141ZM11.146 1.08301H15.7293V0.583008H11.146V1.08301ZM15.729 1.08301C16.5742 1.08411 17.3845 1.4203 17.982 2.01785L18.3355 1.66431C17.6444 0.973113 16.7072 0.584288 15.7297 0.583008L15.729 1.08301ZM17.982 2.01785C18.5795 2.61541 18.9157 3.42563 18.9168 4.27084L19.4168 4.27017C19.4155 3.29261 19.0267 2.35549 18.3355 1.66431L17.982 2.01785ZM18.9168 4.27051V11.1455H19.4168V4.27051H18.9168ZM18.9168 11.1455C18.9168 11.1805 18.9029 11.2141 18.8782 11.2388L19.2318 11.5924C19.3503 11.4739 19.4168 11.3131 19.4168 11.1455H18.9168ZM18.8782 11.2388C18.8535 11.2635 18.8199 11.2775 18.7849 11.2775V11.7775C18.9524 11.7775 19.1132 11.7109 19.2318 11.5924L18.8782 11.2388ZM11.5279 11.0136H18.4029V10.5136H11.5279V11.0136ZM18.6529 10.7636V4.27051H18.1529V10.7636H18.6529ZM18.6529 4.27021C18.652 3.49524 18.3438 2.75206 17.7957 2.2041L17.4422 2.55772C17.8966 3.01198 18.1522 3.62817 18.1529 4.27081L18.6529 4.27021ZM17.7957 2.20416C17.2478 1.65601 16.5046 1.34785 15.7296 1.3469L15.729 1.8469C16.3717 1.84769 16.9879 2.10324 17.4421 2.55765L17.7957 2.20416ZM15.7293 1.3469H11.5279V1.8469H15.7293V1.3469ZM11.2779 1.5969V10.7636H11.7779V1.5969H11.2779ZM15.7293 18.9163H11.146V19.4163H15.7293V18.9163ZM11.146 18.9163C11.0731 18.9163 11.0141 18.8572 11.0141 18.7844H10.5141C10.5141 19.1334 10.797 19.4163 11.146 19.4163V18.9163ZM11.0141 18.7844V13.4372H10.5141V18.7844H11.0141ZM11.0141 13.4372C11.0141 13.3643 11.0731 13.3052 11.146 13.3052V12.8052C10.797 12.8052 10.5141 13.0882 10.5141 13.4372H11.0141ZM11.146 13.3052H18.7849V12.8052H11.146V13.3052ZM18.7849 13.3052C18.8199 13.3052 18.8535 13.3192 18.8782 13.3439L19.2318 12.9903C19.1132 12.8718 18.9524 12.8052 18.7849 12.8052V13.3052ZM18.8782 13.3439C18.9029 13.3686 18.9168 13.4022 18.9168 13.4372H19.4168C19.4168 13.2696 19.3503 13.1088 19.2318 12.9903L18.8782 13.3439ZM18.9168 13.4372V15.7288H19.4168V13.4372H18.9168ZM18.9168 15.7285C18.9157 16.5737 18.5795 17.384 17.982 17.9815L18.3355 18.3351C19.0267 17.6439 19.4156 16.7067 19.4168 15.7292L18.9168 15.7285ZM17.982 17.9815C17.3844 18.579 16.5742 18.9152 15.729 18.9163L15.7297 19.4163C16.7072 19.415 17.6443 19.0262 18.3355 18.3351L17.982 17.9815ZM11.5279 18.6525H15.7293V18.1525H11.5279V18.6525ZM15.7296 18.6525C16.5046 18.6515 17.2478 18.3434 17.7957 17.7952L17.4421 17.4417C16.9879 17.8961 16.3717 18.1517 15.729 18.1525L15.7296 18.6525ZM17.7957 17.7952C18.3438 17.2473 18.652 16.5041 18.6529 15.7291L18.1529 15.7285C18.1522 16.3712 17.8966 16.9874 17.4422 17.4416L17.7957 17.7952ZM18.6529 15.7288V13.8191H18.1529V15.7288H18.6529ZM18.4029 13.5691H11.5279V14.0691H18.4029V13.5691ZM11.2779 13.8191V18.4025H11.7779V13.8191H11.2779Z" />
</svg>
